<svg xmlns="http://www.w3.org/2000/svg" viewBox="0 0 96 120" x="0px" y="0px"><g data-name="1"><path d="M40.46,88.17a2,2,0,0,0,1.56.75,1.94,1.94,0,0,0,1.06-.3c.45-.28,11.15-7,12.59-16.78.69-4.69-.84-9.21-4.56-13.43A74.92,74.92,0,0,0,39.59,47.73c-4.87-3.76-7.31-5.65-10-15.7a2,2,0,0,0-3.43-.83c-.26.3-6.48,7.39-3.92,14.15C24,50,20.22,55.73,20.18,55.79a2,2,0,0,0,1,3,3.74,3.74,0,0,1,1.6,1.05,3.67,3.67,0,0,0,1.69,3.08l-.11.52a2,2,0,0,0,.39,1.65,2,2,0,0,0,1.52.76,4.13,4.13,0,0,1,.58,0c-.5,1.55-1.11,4.36.36,6.1a3.73,3.73,0,0,0,4.08,1A52.35,52.35,0,0,0,37.5,71c2.68,6.71,4.17,13.49,3.1,14.56A2,2,0,0,0,40.46,88.17Zm-.05-20.64a2,2,0,0,0-1.11-1.06,2,2,0,0,0-.73-.14,2.1,2.1,0,0,0-.81.17,55.59,55.59,0,0,1-7.47,2.67h0a7.37,7.37,0,0,1,.63-2.71,2.87,2.87,0,0,0-.13-2.76,3.72,3.72,0,0,0-2.08-1.47l0-.21a2,2,0,0,0-2-2.4h0a4.73,4.73,0,0,0-2.17-3.49c1.33-2.63,3.18-7.55,1.43-12.19-.86-2.28-.05-4.82,1-6.78,2.69,8,5.78,10.35,10.15,13.74a71,71,0,0,1,11,10.15c2.91,3.3,4.12,6.73,3.62,10.2-.67,4.56-4.11,8.48-6.92,11C44.36,77.22,41.84,70.84,40.41,67.53Zm17.07.27c2.06-4.71,1.19-9.11-2.65-13.48a71,71,0,0,0-11-10.15c-4.37-3.38-7.46-5.78-10.15-13.73l-.06.12a2,2,0,1,1-3.57-1.81,21.71,21.71,0,0,1,2.84-4.27,2,2,0,0,1,2-.62,2,2,0,0,1,1.47,1.44C39,35.35,41.45,37.24,46.32,41A74.31,74.31,0,0,1,57.83,51.68c4.84,5.49,6,11.62,3.31,17.72a2,2,0,0,1-1.83,1.2,2.05,2.05,0,0,1-.8-.17A2,2,0,0,1,57.48,67.8ZM64.26,61c2-4.66,1.11-9-2.7-13.36a70.53,70.53,0,0,0-11-10.15c-5-3.91-8.38-6.49-11.37-17.85a2,2,0,1,1,3.87-1C45.74,28.62,48.18,30.51,53,34.28A74.28,74.28,0,0,1,64.56,45c4.8,5.45,6,11.53,3.37,17.58A2,2,0,1,1,64.26,61Zm11-50.62a6.65,6.65,0,1,0-9.6,8.78l-.58.34-8.62-5.12a2,2,0,0,0-2,3.44l6.76,4-6.76,4a2,2,0,0,0,1,3.72,2,2,0,0,0,1-.28l8.62-5.12.58.34a6.64,6.64,0,0,0,3.87,12,6.64,6.64,0,0,0,3.41-12.35l-4-2.35,4-2.34A6.66,6.66,0,0,0,75.24,10.33ZM71.8,31.19a2.64,2.64,0,1,1-.92-3.63A2.64,2.64,0,0,1,71.8,31.19ZM67.25,15.07a2.65,2.65,0,1,1,3.63.93A2.64,2.64,0,0,1,67.25,15.07Z"/></g><text x="0" y="111" fill="#000000" font-size="5px" font-weight="bold" font-family="'Helvetica Neue', Helvetica, Arial-Unicode, Arial, Sans-serif">Created by Kesya Sams</text><text x="0" y="116" fill="#000000" font-size="5px" font-weight="bold" font-family="'Helvetica Neue', Helvetica, Arial-Unicode, Arial, Sans-serif">from the Noun Project</text></svg>