<svg xmlns="http://www.w3.org/2000/svg" data-name="Layer 51" viewBox="0 0 100 125" x="0px" y="0px"><path d="M8.7,39.37a1.5,1.5,0,0,0,.22,1.78,1.47,1.47,0,0,0,1.08.47,1.53,1.53,0,0,0,.69-.17c.17-.09,16.74-8.57,34-8.29a124.6,124.6,0,0,1,41.35,8,4,4,0,0,0,5.44-4.5L91,34.46a7.19,7.19,0,0,0-4.93-5.58c-5.3-1.67-21.42-6.72-38-10.09C23.82,13.84,8.85,39.11,8.7,39.37ZM47.52,21.73c16.4,3.33,32.41,8.36,37.67,10A4.21,4.21,0,0,1,88.07,35l.41,2.23a1,1,0,0,1-.36,1,1,1,0,0,1-1.06.17A127.69,127.69,0,0,0,44.7,30.16h-1c-11.86,0-23,3.75-29.25,6.31C19.73,29.84,31.45,18.46,47.52,21.73Z"/><path d="M19.08,52.45a1.5,1.5,0,0,0,1.84,2.37c.52-.41,1-.8,1.57-1.18,19.7-14.55,38.91-14.55,58.61,0,.52.38,1.05.77,1.57,1.18a1.5,1.5,0,1,0,1.84-2.37C62.8,35.59,40.79,35.59,19.08,52.45Z"/><path d="M89.62,63.06c-.83.22-3.16-1.81-4.81-4.16A1.49,1.49,0,0,0,83,58.38c-21.16,9.3-42.06,9.31-62.1,0a1.51,1.51,0,0,0-2,.85c-.08.22-2,5.3-9,6.18a1.5,1.5,0,0,0-.21,2.93,21.67,21.67,0,0,0,5.16.64,1.84,1.84,0,0,1-.48.08,1.5,1.5,0,0,0-.17,3,35.12,35.12,0,0,0,8.72-.24,2.81,2.81,0,0,1-1.07.74,1.51,1.51,0,0,0-1.19,1.71,1.49,1.49,0,0,0,1.66,1.25,49.78,49.78,0,0,0,6.6-1.21,5.26,5.26,0,0,1-1.47,1.61,1.5,1.5,0,0,0,.45,3A46.2,46.2,0,0,0,36,77a1.51,1.51,0,0,1-.47.42,1.5,1.5,0,0,0,.79,2.89,45.91,45.91,0,0,0,9.18-2.87,5.13,5.13,0,0,1-1,1.44l-.25.07a1.5,1.5,0,0,0,.4,3,2.34,2.34,0,0,0,.9-.19c3.06-.87,10-3,13.67-5.88a11.13,11.13,0,0,1,.31,3.86,1.5,1.5,0,0,0,.48,1.95,1.54,1.54,0,0,0,.84.26,1.48,1.48,0,0,0,1.16-.55l5.09-6.22c3.18,2.7,9.73,2.72,11.22,2.69a1.5,1.5,0,0,0,.94-2.64A7,7,0,0,1,78,73.59c3.52.84,7.41-.73,7.64-.82A1.5,1.5,0,0,0,86,70.23a13.39,13.39,0,0,1-2.18-2.64,14.13,14.13,0,0,0,7-1.81,1.49,1.49,0,0,0,.58-1.86A1.52,1.52,0,0,0,89.62,63.06ZM81.31,64.4a1.49,1.49,0,0,0-1.58,2.17,30.23,30.23,0,0,0,2.58,4.05c-1.89.38-4.53.48-5.85-1.42a1.5,1.5,0,0,0-2.73.94,11.23,11.23,0,0,0,1.38,4.5c-3-.31-6-1.11-6.58-2.53A1.49,1.49,0,0,0,66,71.76l-3.6,4.4a38.94,38.94,0,0,0-.89-4,1.51,1.51,0,0,0-1.42-1.1,1.46,1.46,0,0,0-1.46,1c-.47,1.47-4.86,3.63-9.77,5.35a34.53,34.53,0,0,0,1.46-3.93,1.51,1.51,0,0,0-2.75-1.18c-.77,1.37-4.12,2.81-7.52,3.84a27.43,27.43,0,0,0,1.29-2.87,1.5,1.5,0,0,0-2.72-1.25c-.53,1-3.35,2.08-6.62,2.9a33.05,33.05,0,0,0,1.8-3.27,1.5,1.5,0,0,0-2.46-1.66c-.47.52-2.22,1.11-4.38,1.6.65-.84,1.15-1.61,1.42-2a1.48,1.48,0,0,0-.2-1.84,1.5,1.5,0,0,0-1.84-.25,14.91,14.91,0,0,1-6.25,1.59,22.89,22.89,0,0,0,2-1.94,1.5,1.5,0,0,0-1.79-2.34,10.46,10.46,0,0,1-3.18,1A13.26,13.26,0,0,0,21,61.72c20.1,8.91,41,8.87,62.14-.12a17.6,17.6,0,0,0,2.67,2.8A13,13,0,0,1,81.31,64.4Z"/><text x="0" y="115" fill="#000000" font-size="5px" font-weight="bold" font-family="'Helvetica Neue', Helvetica, Arial-Unicode, Arial, Sans-serif">Created by Lars Meiertoberens</text><text x="0" y="120" fill="#000000" font-size="5px" font-weight="bold" font-family="'Helvetica Neue', Helvetica, Arial-Unicode, Arial, Sans-serif">from the Noun Project</text></svg>