<svg xmlns="http://www.w3.org/2000/svg" data-name="Layer 51" viewBox="0 0 100 125" x="0px" y="0px"><path d="M18.5,90A1.5,1.5,0,0,0,20,91.5H80A1.5,1.5,0,0,0,81.5,90V78.68c0-.46-.2-7.78-3.46-12.75l.16-2.21a6,6,0,0,0-5.27-6.19,18.58,18.58,0,0,0-5.86,0,6,6,0,0,0-5.27,6.19l.14,2c-.15.23-.3.46-.44.69V63.68c0-.46-.2-7.78-3.46-12.75l.16-2.21a6,6,0,0,0-5.27-6.19,18.58,18.58,0,0,0-5.86,0,6,6,0,0,0-5.27,6.19l.14,2a20.06,20.06,0,0,0-2.82,7.14A16,16,0,0,0,38,55.93l.16-2.21a6,6,0,0,0-5.27-6.19,18.58,18.58,0,0,0-5.86,0,6,6,0,0,0-5.27,6.19l.14,2c-3.24,4.74-3.43,11.68-3.44,12.14ZM30,50.3a15.47,15.47,0,0,1,2.45.2,3,3,0,0,1,2.76,3l-.85,12.18a.91.91,0,0,1-.63.34,16.77,16.77,0,0,1-7.46,0c-.44-.09-.61-.29-.62-.35l-.86-12.17a3,3,0,0,1,2.76-3A15.47,15.47,0,0,1,30,50.3ZM22.65,65.85a3.5,3.5,0,0,0,3,3.11,19.91,19.91,0,0,0,8.78,0,3.48,3.48,0,0,0,3-3.07l.24-3.37a30.24,30.24,0,0,1,.92,6.19V88.5h-17V67.9a27.23,27.23,0,0,1,.89-5.76ZM41.5,62.9a27.23,27.23,0,0,1,.89-5.76l.26,3.71a3.5,3.5,0,0,0,3,3.11,19.91,19.91,0,0,0,8.78,0,3.48,3.48,0,0,0,3-3.07l.24-3.37a30.24,30.24,0,0,1,.92,6.19V88.5h-17V62.9ZM50,45.3a15.47,15.47,0,0,1,2.45.2,3,3,0,0,1,2.76,3l-.85,12.18a.91.91,0,0,1-.63.34,16.77,16.77,0,0,1-7.46,0c-.44-.09-.61-.29-.62-.35l-.86-12.17a3,3,0,0,1,2.76-3A15.47,15.47,0,0,1,50,45.3Zm20,15a15.47,15.47,0,0,1,2.45.2,3,3,0,0,1,2.76,3l-.85,12.18a.91.91,0,0,1-.63.34,16.77,16.77,0,0,1-7.46,0c-.44-.09-.61-.29-.62-.35l-.86-12.17a3,3,0,0,1,2.76-3A15.47,15.47,0,0,1,70,60.3ZM62.65,75.85a3.5,3.5,0,0,0,3,3.11,19.91,19.91,0,0,0,8.78,0,3.48,3.48,0,0,0,3-3.07l.24-3.37a30.24,30.24,0,0,1,.92,6.19V88.5h-17V77.9a27.23,27.23,0,0,1,.89-5.76Z"/><path d="M31.79,40.16a1.5,1.5,0,0,0,3,0c1.16-10.7,8.68-13.62,9-13.75a1.5,1.5,0,0,0,0-2.82c-.32-.12-7.86-3-9-13.75a1.5,1.5,0,0,0-3,0c-1.16,10.72-8.7,13.63-9,13.75a1.48,1.48,0,0,0-1,1.4,1.52,1.52,0,0,0,1,1.42C23.09,26.53,30.63,29.44,31.79,40.16ZM40.14,25a18.55,18.55,0,0,0-6.85,8.65A18.5,18.5,0,0,0,26.43,25a18.5,18.5,0,0,0,6.86-8.65A18.55,18.55,0,0,0,40.14,25Z"/><path d="M61.79,45.16a1.5,1.5,0,0,0,3,0c.87-8,6.49-10.23,6.74-10.32a1.5,1.5,0,0,0,0-2.82c-.24-.09-5.87-2.29-6.74-10.33a1.51,1.51,0,0,0-3,0c-.87,8-6.5,10.24-6.73,10.33a1.51,1.51,0,0,0,0,2.82C55.29,34.93,60.92,37.12,61.79,45.16ZM68,33.43a14.49,14.49,0,0,0-4.69,5.8,14.58,14.58,0,0,0-4.7-5.8,14.66,14.66,0,0,0,4.7-5.8A14.56,14.56,0,0,0,68,33.43Z"/><text x="0" y="115" fill="#000000" font-size="5px" font-weight="bold" font-family="'Helvetica Neue', Helvetica, Arial-Unicode, Arial, Sans-serif">Created by Lars Meiertoberens</text><text x="0" y="120" fill="#000000" font-size="5px" font-weight="bold" font-family="'Helvetica Neue', Helvetica, Arial-Unicode, Arial, Sans-serif">from the Noun Project</text></svg>