<svg xmlns="http://www.w3.org/2000/svg" viewBox="0 0 40 50" x="0px" y="0px"><path d="M4,16.84V36a4,4,0,0,0,8,0V16.84a4.5,4.5,0,0,0,2.54-2.68C16,10.91,16,5.18,16,3a2.26,2.26,0,0,0-1.51-1.94A17.56,17.56,0,0,0,8,0,17.56,17.56,0,0,0,1.51,1.06,2.26,2.26,0,0,0,0,3c0,2.18,0,7.91,1.46,11.16A4.5,4.5,0,0,0,4,16.84ZM16.94,31A1,1,0,0,0,16,32v2H15a1,1,0,0,0-1,1v1a4,4,0,0,0,4,4H36a4,4,0,0,0,4-4V35a1,1,0,0,0-1-1H38V32a1,1,0,0,0-.94-1,13,13,0,1,0-20.12,0ZM10,33v3a2,2,0,0,1-4,0V33Zm28,3a2,2,0,0,1-2,2H18a2,2,0,0,1-2-2ZM18,33H36v1H18V33Zm16.29-2a11,11,0,1,0-14.58,0H21a10,10,0,1,1,12,0ZM27,31a8,8,0,1,1,8-8,8,8,0,0,1-8,8ZM6,21V31h4V21Zm25.29,1.29-5,5a1,1,0,0,0,1.42,1.42l5-5a1,1,0,0,0-1.42-1.42Zm-4-1-2,2a1,1,0,0,0,1.42,1.42l2-2a1,1,0,0,0-1.42-1.42ZM10,17H6v2h4V17ZM9,2V5A1,1,0,0,1,7,5V2a16.26,16.26,0,0,0-4.09.63A3.92,3.92,0,0,0,2.15,3L2,3.1A37.64,37.64,0,0,0,2.83,12a6.85,6.85,0,0,0,1,2.31,1.58,1.58,0,0,0,1,.66L4,10.16a1,1,0,1,1,2-.32L6.85,15H8.22L9,11.76a1,1,0,1,1,1.94.48L10.28,15H11a1.47,1.47,0,0,0,1.16-.67,6.85,6.85,0,0,0,1-2.31A37.64,37.64,0,0,0,14,3.1L13.85,3a3.92,3.92,0,0,0-.76-.33A16.26,16.26,0,0,0,9,2Z" fill-rule="evenodd"/><text x="0" y="55" fill="#000000" font-size="5px" font-weight="bold" font-family="'Helvetica Neue', Helvetica, Arial-Unicode, Arial, Sans-serif">Created by Soni Sokell</text><text x="0" y="60" fill="#000000" font-size="5px" font-weight="bold" font-family="'Helvetica Neue', Helvetica, Arial-Unicode, Arial, Sans-serif">from the Noun Project</text></svg>