<?xml version="1.0" encoding="utf-8"?>
<!-- Generator: Adobe Illustrator 27.0.0, SVG Export Plug-In . SVG Version: 6.00 Build 0)  -->
<svg version="1.1" id="Layer_1" xmlns="http://www.w3.org/2000/svg" xmlns:xlink="http://www.w3.org/1999/xlink" x="0px" y="0px"
	 viewBox="0 0 1200 1200" style="enable-background:new 0 0 1200 1200;" xml:space="preserve">
<style type="text/css">
	.st0{fill:url(#SVGID_1_);}
	.st1{fill:none;stroke:#000000;stroke-width:0.3;}
	.st2{fill:url(#SVGID_00000108301577554451791230000005465259252409915803_);}
	.st3{fill:none;}
	.st4{fill:#FFFFFF;}
</style>
<g>
	<g>
		<g>
			
				<radialGradient id="SVGID_1_" cx="184.8577" cy="477.4867" r="176.376" gradientTransform="matrix(0.4864 0 0 -0.4508 195.4852 728.451)" gradientUnits="userSpaceOnUse">
				<stop  offset="0" style="stop-color:#D0C6F3"/>
				<stop  offset="0.486" style="stop-color:#D7E1E9"/>
				<stop  offset="1" style="stop-color:#E2F1E0"/>
			</radialGradient>
			<path class="st0" d="M285.4,602.5c-1.9,0-3.6-1.4-3.9-3.4c-9.4-62.2-16.3-70.6-67-82c-1.8-0.4-3.1-2-3.1-3.9
				c0-1.8,1.3-3.5,3.1-3.9c50.7-11.4,57.5-19.8,67-82l0,0c0.2-1.9,1.9-3.4,3.9-3.4c1.9,0,3.6,1.4,3.9,3.4c9.4,62.2,16.3,70.6,67,82
				l0,0c1.8,0.4,3.1,2,3.1,3.9c0,1.8-1.3,3.5-3.1,3.9c-50.7,11.4-57.5,19.8-67,82l0,0C289,601.1,287.3,602.5,285.4,602.5
				L285.4,602.5z M231.9,513.3c34.6,9.6,45.4,21.8,53.4,61.8c8-40,18.9-52.2,53.4-61.8c-34.6-9.6-45.4-21.8-53.4-61.8
				C277.3,491.5,266.5,503.7,231.9,513.3z"/>
		</g>
		<line class="st1" x1="211.4" y1="399.7" x2="211.4" y2="415.9"/>
		<line class="st1" x1="185.1" y1="424" x2="202.6" y2="424"/>
		<line class="st1" x1="185.1" y1="602.5" x2="202.6" y2="602.5"/>
		<line class="st1" x1="211.4" y1="626.9" x2="211.4" y2="610.7"/>
		<line class="st1" x1="359.3" y1="399.7" x2="359.3" y2="415.9"/>
		<line class="st1" x1="385.6" y1="424" x2="368" y2="424"/>
		<line class="st1" x1="385.6" y1="602.5" x2="368" y2="602.5"/>
		<line class="st1" x1="359.3" y1="626.9" x2="359.3" y2="610.7"/>
	</g>
	<g>
		<g>
			<g>
				
					<radialGradient id="SVGID_00000039843525754172483760000003587779134981151667_" cx="82.0617" cy="409.3856" r="293.4871" gradientTransform="matrix(0.4864 0 0 -0.4508 195.4852 728.451)" gradientUnits="userSpaceOnUse">
					<stop  offset="0" style="stop-color:#D0C6F3"/>
					<stop  offset="0.486" style="stop-color:#D7E1E9"/>
					<stop  offset="1" style="stop-color:#E2F1E0"/>
				</radialGradient>
				<path style="fill:url(#SVGID_00000039843525754172483760000003587779134981151667_);" d="M235.4,697.1c-3.1,0-5.7-2.5-6.1-5.8
					c-14.7-106.7-25.5-121.3-105-140.7c-2.8-0.7-4.8-3.5-4.8-6.7s2-5.9,4.8-6.7c79.5-19.5,90.2-34,105-140.7l0,0
					c0.4-3.3,3-5.8,6.1-5.8s5.7,2.5,6.1,5.8c14.7,106.8,25.5,121.3,105,140.7l0,0c2.8,0.7,4.8,3.5,4.8,6.7s-2,5.9-4.8,6.7
					c-79.5,19.5-90.2,34-105,140.7l0,0C241.1,694.6,238.4,697,235.4,697.1L235.4,697.1z M151.6,543.8
					c54.2,16.4,71.3,37.4,83.8,106.1c12.5-68.7,29.6-89.7,83.8-106.1c-54.2-16.4-71.3-37.3-83.8-106.1
					C222.8,506.5,205.8,527.4,151.6,543.8z"/>
			</g>
			<line class="st3" x1="119.4" y1="366.3" x2="119.4" y2="382.6"/>
			<line class="st3" x1="93.2" y1="390.7" x2="110.7" y2="390.7"/>
			<line class="st3" x1="93.2" y1="697.1" x2="110.7" y2="697.1"/>
			<line class="st3" x1="119.4" y1="721.4" x2="119.4" y2="705.2"/>
			<line class="st3" x1="351.3" y1="366.3" x2="351.3" y2="382.6"/>
			<line class="st3" x1="377.6" y1="390.7" x2="360.1" y2="390.7"/>
			<line class="st3" x1="377.6" y1="697.1" x2="360.1" y2="697.1"/>
			<line class="st3" x1="351.3" y1="721.4" x2="351.3" y2="705.2"/>
		</g>
	</g>
</g>
<g>
	<g>
		<path class="st4" d="M507.1,561.6c-2,0-3.7-0.1-5.7-0.2c-11.3-0.6-17.3-3-24.1-10.8c-5.7-6.4-11.3-14.2-16.2-20.6
			c-3.1-4-5.1-4.8-13-4.8h-5.4v19.6c0,10.6,1.7,11.2,14.1,12.2v3.5h-41.3V557c12.8-1.1,13.9-1.6,13.9-12.2v-49.9
			c0-10.6-1.7-11-13.9-12.1v-3.5h39.4c11.3,0,18.9,1.1,24.7,4.2c6.3,3.2,10.5,8.9,10.5,16.5c0,10.8-8.5,17.5-20,21.5
			c2.8,3.9,9.4,12.2,14.1,17.9c5.7,6.6,8.7,9.8,12.2,12.9c4.2,3.6,7.7,5,11.3,5.8L507.1,561.6z M450.1,521c8,0,13.1-1,17-3.6
			c6-3.6,8.5-8.6,8.5-15.4c0-13.4-11-18.2-22.9-18.2c-4.5,0-7.1,0.5-8.2,1.2c-1.4,0.9-1.9,2.1-1.9,5.4V521H450.1z"/>
		<path class="st4" d="M604.3,540.8c-0.9,3.2-5.1,16.1-6.7,19.9h-75.2v-3.5c14.4-0.9,15.5-2,15.5-12.2v-49.4
			c0-11.1-1.7-11.8-13.3-12.6v-3.5h47.3c14.5,0,20.6-0.1,22.4-0.2c0.2,3.1,0.8,12.5,1.4,19.1l-4.6,0.6c-1.4-4.2-2.9-6.9-4.6-9.5
			c-2.5-4.1-6-5-15.3-5h-14.7c-4.8,0-5.1,0.4-5.1,4v27.6h17.2c11.6,0,12.4-1.9,14.2-10.4h4.8v25.8h-4.8c-2-9-3.2-10.2-14.4-10.2h-17
			v24.9c0,8.8,3.4,9.5,11.1,9.6h14.4c9.4,0,11-1.1,14.4-4.4c2.9-2.6,6.2-7.8,8.4-11.5L604.3,540.8z"/>
		<path class="st4" d="M723.4,482.9c-10.4,1.1-13,2.2-18.6,13.5c-4.2,8.2-25.5,50.1-33.1,65.6h-5.1c-9.1-20.1-22.4-49.4-31.2-67.9
			c-4.3-9.2-7-10.5-16.4-11.2v-3.5h39.2v3.5c-11.4,1-12.1,2.5-9.9,7.1c3.9,9.1,15.2,34,24.9,54.8c8.2-16.1,18.4-36.5,25.7-52.2
			c3.4-7.2,1.5-8.4-11.1-9.6v-3.5h35.6V482.9z"/>
		<path class="st4" d="M738.7,560.6v-3.5c12.7-1.1,13.9-1.6,13.9-12.2v-49.6c0-10.8-1.2-11.2-13.9-12.4v-3.5h41.4v3.5
			c-12.8,1.1-14.1,1.6-14.1,12.4v49.6c0,10.8,1.2,11.1,14.1,12.2v3.5H738.7z"/>
		<path class="st4" d="M902.2,482.9c-10.4,1.1-13,2.2-18.6,13.5c-4.2,8.2-25.5,50.1-33.1,65.6h-5.1c-9.1-20.1-22.4-49.4-31.2-67.9
			c-4.3-9.2-7-10.5-16.4-11.2v-3.5h39.3v3.5c-11.4,1-12.1,2.5-9.9,7.1c3.9,9.1,15.2,34,24.9,54.8c8.2-16.1,18.4-36.5,25.7-52.2
			c3.4-7.2,1.5-8.4-11.1-9.6v-3.5h35.5V482.9z"/>
		<path class="st4" d="M969.9,477.6c26.4,0,50.1,16.4,50.1,41.2c0,26.9-22.6,43.6-51,43.6c-29.7,0-51.3-18.2-51.3-41.8
			C917.6,498.4,937.3,477.6,969.9,477.6z M966.8,482.3c-17.3,0-33.1,11.8-33.1,35.1c0,23.2,15.8,40.4,37.7,40.4
			c18.7,0,32.8-11.2,32.8-35.4C1004.2,496.1,987.1,482.3,966.8,482.3z"/>
	</g>
</g>
</svg>
