<svg xmlns="http://www.w3.org/2000/svg" version="1.1" viewBox="-5.0 -10.0 110.0 135.0">
 <path d="m36.547 40.672c0.003906 0.26172 0.027344 0.52344 0.0625 0.78125 0.26562 2.2109 1.1914 4.2891 2.6523 5.9688 2.0703 2.3594 5.0703 3.6992 8.2109 3.6641 0.60156-4.3477-2.293-5.7266-5.6094-7.3672v-0.003906c-1.8711-0.83984-3.6523-1.8711-5.3164-3.0742zm-15.695 49.473-17.094 0.003907 0.09375 3.7578h16.949v-3.7578zm-20.25-1.3438c-0.019531-0.058593-0.019531-0.12109 0-0.17969 0-1.0508-0.09375-2.2109-0.125-3.2852-0.47656-10.598-0.86719-19.684 3.7344-29.379-0.59766-0.60938-0.94141-1.4219-0.95703-2.2734v-3.1562c-0.011718-0.86719 0.33594-1.7031 0.95703-2.3047 0.60547-0.62109 1.4297-0.97266 2.293-0.98047h0.86328v-7.5781c0.003906-1.3164 0.53125-2.5742 1.4648-3.4961 0.92578-0.9375 2.1875-1.4648 3.5039-1.4648 1.3164 0 2.582 0.52734 3.5078 1.4648 0.93359 0.92188 1.4609 2.1797 1.4609 3.4961v7.5781h0.84375c0.86328 0.011718 1.6875 0.36328 2.293 0.98047 0.60547 0.61328 0.9375 1.4414 0.92578 2.3047v3.1562c-0.003907 0.85938-0.33594 1.6836-0.92578 2.3047 4.5391 9.7188 4.168 18.75 3.7695 29.273-0.11719 3.1562-0.27344 6.5039-0.27344 10.199v0.003906c0.003906 0.41016-0.15625 0.80859-0.44531 1.1016-0.29297 0.29297-0.69141 0.45703-1.1016 0.45312h-20.129c-0.84766-0.003906-1.5352-0.6875-1.5469-1.5352 0-2.3594-0.0625-4.5586-0.11719-6.6836zm3.043-1.7266h17.336c0-0.65234 0.050781-1.2852 0.085937-1.9062 0.42188-10.262 0.77734-19.012-3.6406-28.23h-10.27c-4.3789 9.125-4 17.988-3.6094 28.23 0 0.62109 0.0625 1.2539 0.09375 1.9062zm10.039-20.918c0.50391 1.3164 1.125 2.5859 1.8516 3.793 1.1406 1.7852 1.9414 3.7656 2.3594 5.8398 0.46484 2.4297-0.59766 4.9023-2.6836 6.2305-0.95703 0.55469-2.0547 0.82422-3.1602 0.78125-1.0859-0.027343-2.1445-0.37109-3.0391-0.99219-1.6445-1.1445-2.6953-3.2734-2.2109-6.25 0.46484-1.8008 1.1758-3.5273 2.1055-5.1367 0.76172-1.332 1.3711-2.7461 1.8203-4.2109 0.097657-0.39844 0.34766-0.74219 0.70313-0.95313 0.35156-0.21484 0.77344-0.27344 1.1719-0.17187 0.53125 0.12109 0.95313 0.52734 1.1055 1.0508zm-0.86328 5.3164c-0.17969-0.30469-0.35937-0.60156-0.50391-0.90625-0.21094 0.45312-0.45312 0.875-0.66406 1.2852-0.77734 1.3398-1.3711 2.7773-1.7578 4.2734-0.37891 1.1445-0.007812 2.4023 0.92578 3.1602 0.41016 0.26172 0.88281 0.41406 1.3711 0.44141 0.50391 0.023438 1.0039-0.10156 1.4414-0.35937 0.98828-0.71875 1.457-1.9609 1.1875-3.1562-0.38672-1.6562-1.0625-3.2305-2-4.6523zm-2.293-24.23h3.6719v-7.5781c-0.015625-1.0156-0.83594-1.8359-1.8516-1.8555-0.48828 0.003906-0.95312 0.21094-1.2852 0.57031-0.34375 0.33984-0.53516 0.80078-0.53516 1.2852zm7.6406 3.1562h-11.578s-0.0625 0-0.09375 0.0625v0.003906c-0.011719 0.027344-0.011719 0.0625 0 0.09375v3.1562c-0.011719 0.03125-0.011719 0.066406 0 0.09375 0.03125 0.011718 0.0625 0.011718 0.09375 0h11.578c0.027343 0.007812 0.058593 0.007812 0.085937 0 0.011719-0.027344 0.011719-0.0625 0-0.09375v-3.1875c0.011719-0.03125 0.011719-0.066406 0-0.097656 0 0-0.0625-0.0625-0.085937-0.0625zm64.57 25.633c0.41406-0.003906 0.8125 0.15625 1.1055 0.44922s0.45703 0.69531 0.44922 1.1094c0.003906 0.41406-0.15625 0.81641-0.44922 1.1133-0.29297 0.29297-0.69141 0.46094-1.1055 0.46484h-19.863v6.4414c0.003906 4.5938 3.7227 8.3164 8.3164 8.3281h17.23c4.582-0.023438 8.2891-3.7422 8.293-8.3281v-14.59h-33.84v5.0117zm-18.203-8.1484h30.527v-1.5664h-30.527zm33.684 0.17969h0.003906c0.32031 0.13281 0.61328 0.32422 0.86328 0.57031 0.48828 0.47656 0.76953 1.1328 0.77734 1.8203v15.156c-0.027343 6.3086-5.1367 11.41-11.441 11.434h-17.23c-3.0195-0.015625-5.9062-1.2227-8.0352-3.3594-0.37109-0.34766-0.72266-0.72266-1.0508-1.1133h-30.684c-2.9492-0.023437-5.3359-2.4023-5.3711-5.3477-0.0625-12.559-0.53516-26.969-1.3789-41.23-0.65234-11.578-1.5781-23.043-2.7148-33.453v-0.14844c-0.17969-1.6094-0.35938-3.1562-0.53516-4.7148v-0.003906c-0.066406-0.58984-0.011719-1.1875 0.15625-1.7578 0.1875-0.56641 0.49219-1.0859 0.89453-1.5234 0.36719-0.46875 0.85156-0.83203 1.4023-1.0547 0.53516-0.26172 1.1289-0.39453 1.7266-0.38672h47.145c0.58984-0.003907 1.168 0.12891 1.6953 0.38672h0.125 0.003906c0.5 0.26172 0.94141 0.61719 1.3047 1.0547 0.38281 0.44531 0.67969 0.96484 0.87109 1.5234 0.18359 0.57031 0.23438 1.1719 0.14844 1.7578-0.86328 7.2539-1.6094 15.074-2.2109 23.062-0.63281 8.3281-1.1367 16.844-1.4961 25.125l0.003906 0.003906c3.8711 0.21484 7.7031 0.92188 11.398 2.1055 1.9375 0.53516 3.1562 0.53516 3.8828 0.21094 0.24219-0.125 0.4375-0.32422 0.55859-0.57031 0.12891-0.35156 0.16406-0.73438 0.09375-1.1055-0.12891-1.0234-0.62891-1.9648-1.3984-2.6523-0.66016-0.55469-0.75391-1.5391-0.21094-2.2109 0.44141-0.53516 1.1875-0.70703 1.8203-0.41797 8.7383 3.5977 7.6133 8.5781 6.4531 11.934 0.58594 0.089844 1.1289 0.36328 1.5469 0.78125 0.52734 0.49609 0.82031 1.1914 0.8125 1.9141zm-37.797 21.41c-0.44531-1.2227-0.66406-2.5195-0.65234-3.8203v-8.0117h-30.738c0.0625 3.2539 0.11719 6.4727 0.11719 9.5469v0.003906c-0.011719 0.60547 0.22266 1.1914 0.65234 1.6211 0.42969 0.42969 1.0117 0.66797 1.6211 0.66016h11.062v-6.8086c-0.003906-0.41406 0.16016-0.8125 0.45312-1.1055 0.29297-0.29297 0.69141-0.45703 1.1055-0.45312h10.199c0.85156 0.015625 1.5352 0.70703 1.5469 1.5586v6.8086zm-0.65234-14.914v-4.1055c-0.011719-0.68359 0.25781-1.3438 0.74609-1.8203 0.25781-0.25 0.5625-0.44531 0.89453-0.57031v-2.1992c-0.003906-0.71484 0.27344-1.4023 0.76953-1.9141 0.0625 0 0.09375-0.085938 0.14844-0.11719 0.49609-0.4375 1.1367-0.67578 1.7969-0.67578h0.17969c0.37891-4.2109 2.5586-6.2109 5.7578-6.957 0.39062-8.5977 0.86328-17.25 1.5156-25.672 0.42188-5.707 0.92578-11.285 1.4961-16.652h-47.812c1.0508 9.9688 1.9062 20.914 2.5703 31.957 0.57031 9.6953 0.95703 19.453 1.1562 28.707zm7.6953-11.402h25.062c0.046875-0.13672 0.082031-0.27734 0.11328-0.41797 0.54688-1.5469 1.3164-3.7578-0.37891-5.8516v-0.003907c0.027343 0.6875-0.09375 1.3672-0.35547 2-0.40234 0.94922-1.1562 1.7031-2.1055 2.1055-1.3477 0.63281-3.2852 0.74609-6 0-4.3594-1.2305-8.8008-2.3359-12-1.9492v0.003907c-2.2891 0.050781-4.1641 1.832-4.3359 4.1133zm-14.738 26.316v-5.2617h-7.1367v5.2617zm-27.844-78.758h48.516c0.11719-1.1367 0.28516-2.293 0.39062-3.4297 0.046876-0.14453 0.046876-0.30078 0-0.44141-0.078124-0.28125-0.27344-0.51172-0.53516-0.63281h-0.0625c-0.13281-0.054688-0.26953-0.085938-0.41406-0.085938h-47.207c-0.15234-0.003906-0.30469 0.027344-0.44531 0.085938-0.14062 0.054687-0.26562 0.14844-0.35547 0.27344-0.10547 0.11328-0.1875 0.24609-0.24219 0.39062-0.035156 0.15625-0.035156 0.31641 0 0.47266 0.14844 1.0508 0.27344 2.2617 0.39062 3.3984zm25.57 11.191c0.76172 2.0742 1.7188 4.0742 2.8633 5.9688 1.6094 2.8945 3.2305 5.8086 3.5273 8.5898 0.14453 1.2227 0.09375 2.4648-0.14844 3.6719 1.9141-0.89062 3.6172-2.1719 5.0117-3.7578 0.52734-0.66797 1.4961-0.78906 2.1758-0.27344 0.27734 0.22266 0.47656 0.53125 0.57031 0.875 0.37109 1.582 0.47266 3.2148 0.29297 4.8281-0.67969 5.8047-4.8867 10.582-10.555 11.992-1.582 0.40234-3.2266 0.50781-4.8438 0.30469-0.13281-0.042969-0.27734-0.042969-0.41016 0-1.6172 0.20312-3.2539 0.097656-4.832-0.30469-5.6914-1.3945-9.9141-6.1719-10.602-11.992-0.17969-1.6133-0.070312-3.25 0.32812-4.8281 0.066407-0.34766 0.25781-0.66016 0.53516-0.875 0.67969-0.51562 1.6484-0.39453 2.1797 0.27344 1.3672 1.5742 3.0586 2.8359 4.957 3.6953-0.22266-1.2812-0.22266-2.5938 0-3.875 0.66406-2.668 1.6992-5.2305 3.0742-7.6094 1.1914-2.082 2.1406-4.293 2.832-6.5898 0.17578-0.67578 0.77344-1.1562 1.4688-1.1758 0.69922-0.023438 1.3281 0.41797 1.543 1.082zm0.14844 7.4961c-0.53516-0.92578-1.0508-1.8828-1.5156-2.8086-0.50391 1.168-1.1055 2.293-1.707 3.4297v-0.003907c-1.2148 2.1172-2.1484 4.3867-2.7695 6.75-0.50391 2.7461 0.39062 4.6211 1.7578 5.5781 0.76172 0.50781 1.6562 0.78516 2.5703 0.80078 0.92578 0.039062 1.8398-0.1875 2.6406-0.65234 1.4961-0.89453 2.5352-2.7773 2.2109-5.6641-0.27344-2.2422-1.707-4.8438-3.1562-7.4297zm11.07 12.051c0.039063-0.25781 0.0625-0.51953 0.066406-0.78125-1.6484 1.2031-3.4102 2.2305-5.2656 3.0742-3.3047 1.6094-6.1797 2.9883-5.6094 7.3672v0.003907c5.5508 0.039062 10.238-4.1172 10.863-9.6328z"/>
<text x="0.0" y="117.5" font-size="5.0" font-weight="bold" font-family="Arbeit Regular, Helvetica, Arial-Unicode, Arial, Sans-serif" fill="#000000">Created by Krisdiawanto</text><text x="0.0" y="122.5" font-size="5.0" font-weight="bold" font-family="Arbeit Regular, Helvetica, Arial-Unicode, Arial, Sans-serif" fill="#000000">from Noun Project</text></svg>