<svg xmlns="http://www.w3.org/2000/svg" version="1.1" viewBox="-5.0 -10.0 110.0 135.0">
 <path d="m81.383 35.285c0.93359-0.03125 1.3828 0.52344 1.5781 1.3828-0.44141 1.6289-2.8672 3.5977-4.0664 4.793 3.6758 2.8828 7.8398 4.9531 12.531 5.3984 0.79297 0.078125 1.6406 0.0625 2.4219 0.21094 1.0703 0.20703 1.5508 1.375 0.76172 2.2344-0.73438 0.79687-3.5078 0.23047-4.4336 0.078124-4.4297-0.73047-10.074-3-13.375-6.2031-0.95703 0.93359-3.3477 2.2852-4.5898 2.9336 2.3359 3.5469 8.043 7.4727 11.859 8.9922 0.70703 0.28125 3.4688 1.0898 3.8398 1.4414 0.82031 0.78125 0.23438 2.2383-0.875 2.2383-0.77344 0-1.6328-0.33984-2.3594-0.58984-5.3164-1.8438-9.9336-5.0352-13.613-9.2656-0.4375-0.50391-0.80859-1.0742-1.2852-1.543l-0.054688-0.054688c-1.5586 0.66406-3.1562 1.2734-4.7617 1.8125 1.5039 4.0117 3.6406 7.1484 7.1367 9.6094 0.53125 0.375 2.0977 1.1641 2.3203 1.6602 0.54688 1.2148-0.55469 2.4453-1.8359 1.8516-4.5-2.0859-8.6133-7.9219-10.219-12.426-1.9258 0.41016-3.8555 0.72656-5.7891 1.082 0.38281 3.6758 1.9336 7.207 4.3828 9.9727 0.51562 0.58594 1.5 1.3008 1.6367 2.1172 0.20703 1.207-1.1289 1.9805-2.0781 1.2695-0.57031-0.42578-1.043-1.1406-1.5156-1.6758-3.0469-3.4844-4.3828-6.8594-5.0742-11.379-1.4883-0.16797-3.9727 0.015626-5.5781 0-0.50391 4.4297-1.0508 7.3594-3.4844 11.203-0.40625 0.64844-0.84375 1.4727-1.4297 1.9766-0.96484 0.83594-2.6016-0.13672-2.1055-1.418 0.23438-0.60156 0.73438-1.1953 1.082-1.7422 2.1406-3.3633 2.7773-6.1445 3.1992-10.148-1.8047-0.078125-3.7617-0.46875-5.5352-0.79297-0.12891 0.019531-0.27344 0.003906-0.40625 0-0.91406 4.6641-2.7812 7.6875-6.0352 11.09-1.1445 1.1992-2.9219 2.7305-3.5625 0.17578l0.03125-0.10156c0.28906-0.97266 1.2461-1.6016 1.9219-2.3008 2.8477-2.9531 4.0664-5.4883 5.0156-9.4844-1.6602-0.67578-3.6016-1.1758-5.3398-1.8242-2.5156 4.9336-6.0508 9.2773-10.672 12.375-0.97656 0.65625-4.0195 3.0195-4.75 0.89453-0.54688-1.5898 1.9219-2.2539 2.9141-2.9023 4.2695-2.7969 7.7891-6.8906 10.016-11.48-1.6172-0.97656-3.2422-1.7266-4.8984-2.7891-3.4062 5.3242-7.8867 8.9219-14.062 10.754-0.98438 0.28906-3.6836 1.1562-4.5625 0.64844-0.85156-0.49219-0.95703-1.8164-0.03125-2.3047 0.60938-0.32031 2.1602-0.50781 2.9414-0.70313 5.5938-1.3984 10.609-5.0039 13.586-9.9609-0.96094-0.63672-4.8711-4.0938-5.2969-5.2031-0.49609-1.2734 1.0117-2.3164 2.0547-1.5156 0.59766 0.45703 1.3203 1.5195 1.9492 2.1211 12.141 11.555 32.48 13.773 47.484 7.1055 4.1172-1.8281 8.0117-4.2812 10.977-7.7227 0.55469-0.64453 1.1133-1.6367 1.9805-1.8789z"/>
<text x="0.0" y="117.5" font-size="5.0" font-weight="bold" font-family="Arbeit Regular, Helvetica, Arial-Unicode, Arial, Sans-serif" fill="#000000">Created by Shayan Lee</text><text x="0.0" y="122.5" font-size="5.0" font-weight="bold" font-family="Arbeit Regular, Helvetica, Arial-Unicode, Arial, Sans-serif" fill="#000000">from Noun Project</text></svg>